<?xml version="1.0" encoding="UTF-8"?>
<svg id="Capa_1" data-name="Capa 1" xmlns="http://www.w3.org/2000/svg" viewBox="0 0 595.28 841.89">
  <defs>
    <style>
      .cls-1 {
        fill: #f7b38b;
      }

      .cls-2 {
        fill: #faefe5;
      }

      .cls-3 {
        fill: #a18d7c;
      }

      .cls-4 {
        fill: #83655a;
      }

      .cls-5 {
        fill: #282826;
      }

      .cls-6 {
        fill: #7d4912;
      }

      .cls-7 {
        fill: #6c4f46;
      }

      .cls-8 {
        fill: #e6dad1;
      }

      .cls-9 {
        fill: #a9d7cd;
      }

      .cls-10 {
        fill: #010101;
      }
    </style>
  </defs>
  <path class="cls-9" d="M312.66,395.83s-14.41,6.09-25.78-7.24c0,0-18.96-.43-25.28,9.8-6.32,10.23-15.92,26.73-15.92,26.73,0,0,6.07,9.21,20.22,12.53,0,0,3.79,42,4.04,42h63.7l1.26-38.43s6.07-1.96,10.87-8.44c-.54-13.88-3.54-32.94-18.82-35.21,0,0-6.24-1.96-14.29-1.75Z"/>
  <path class="cls-7" d="M296.14,377.93s-2.44,7.05-9.26,10.65c0,0,6.3,11.85,24.13,9.49l-14.87-20.15Z"/>
  <path class="cls-1" d="M286.01,388.16s-18.28,23.16-21.05,40.6c-.07,.44-.13,.87-.18,1.3-2.02,17.56,3.79,49.17,3.79,49.17h64.96v-29.95s-8.07-44.98-16.29-51.62l-3.66-.09s6.82,14.72,5.55,18.62c0,0-29.09,2.04-39.18,0l10.4-29.87-4.32,1.85Z"/>
  <path class="cls-6" d="M356.56,479.66h-113.74s-11.29,24.6-10.95,27.97h132.61l-7.92-27.97Z"/>
  <polygon class="cls-6" points="231.86 507.63 231.86 511.67 364.47 510.91 364.47 507.63 231.86 507.63"/>
  <g>
    <path class="cls-5" d="M293.46,360.87s0-17.74,16.35-24.14c16.34-6.4,31.17,1.69,35.39,9.1,4.21,7.41,15.84,23.74-1.52,26.26-17.36,2.53-50.21-11.22-50.21-11.22Z"/>
    <path class="cls-4" d="M301.88,355.77s-6.07-6.18-10.11,.7c-4.04,6.88,1.35,13.73,5.06,13.84,0,0-4.38,15.9,8.43,24.52,12.81,8.62,23.59-1.76,29.99-10.05,6.4-8.29,8.43-12.69,8.43-12.69,0,0-5.06-7.21-11.46-7.81-6.4-.6-14.49-5.31-16.85-8.51-2.36-3.2-5.73-5.22-13.48,0Z"/>
    <path class="cls-5" d="M305.6,364.15s9.31,4.19,12.42,3.58c0,0,3.62,.33,3.59-1.3-.02-1.62,.12-3.54-4.08-3.6-4.2-.06-7.56,.22-11.93,1.32Z"/>
    <path class="cls-5" d="M339.24,378.84s-6.53-1.98-7.29-3.63c0,0-1.22-2.03-.07-2.81,1.16-.78,2.06-1.17,3.72,.62,1.65,1.79,2.74,3.38,3.64,5.81Z"/>
    <path class="cls-10" d="M314.52,388.44c-1.64-.77-1.61-2.8-1.19-4.33,.1-.37-.43-.5-.56-.16-.59,1.47-.39,4.61,1.67,4.79,.16,.01,.23-.24,.08-.31h0Z"/>
    <path class="cls-10" d="M318.06,387.87c.88,.15,7.24-.62,5.82-2.15-.49-.53-1.04-.76-1.71-1.06-2.19-.99-1.83-2.84-.8-4.47,1.46-2.32,3.89-3.88,5.82-5.76,.33-.32-.15-.76-.49-.49-2.77,2.18-6.2,4.89-7.01,8.5-.16,.69-.09,1.83,.66,2.19,.76,.36,1.56,.57,2.33,.91,.08,.98-.33,1.49-1.24,1.51-1.11,.36-2.17,.55-3.34,.48-.19-.01-.23,.3-.04,.33h0Z"/>
    <path class="cls-10" d="M298.46,367.98c1.31-2.86,4.82-12.3-1.34-12-.5,.02-.49,.73,0,.77,5.34,.5,1.45,8.02,.92,11.05-.04,.24,.3,.43,.42,.18h0Z"/>
    <path class="cls-10" d="M299.64,364.23c.63-2.23-1.98-4.29-3.4-5.59-.35-.32-.79,.15-.51,.51,.61,.74,1.39,1.33,2.06,2.01,.93,.94,1.19,1.89,1.62,3.08,.04,.11,.2,.12,.23,0h0Z"/>
    <path class="cls-5" d="M313.83,376.93c-.54,.9-1.53,1.3-2.22,.88-.69-.41-.81-1.47-.27-2.37,.54-.9,1.53-1.3,2.22-.88,.69,.41,.81,1.47,.28,2.37Z"/>
    <path class="cls-5" d="M329.78,385.79c-.54,.9-1.53,1.3-2.22,.88-.69-.41-.81-1.47-.27-2.37,.54-.9,1.53-1.3,2.22-.88,.69,.41,.81,1.47,.28,2.37Z"/>
  </g>
  <path class="cls-2" d="M256.8,420.5c.5,.76,0,28.29,21.99,33.86,0,0,26.27-16.62,32.22-15s3.95-4.06,3.43-7.54c-.51-3.48,.74-8.45-11.63-26.67-6.07-7.17-10.87-3.29-10.87-3.29l-35.13,18.64Z"/>
  <path class="cls-8" d="M301.54,419.24c3.42,3.42,7.2,6.48,10.43,9.87-1.06-4.46-3.21-10.28-5.71-14.92-5.22-9.69-10.95-12.47-13.99-8-.66,.97-.9,2.45-.82,4.22,4.11,2.63,7.47,5.36,10.08,8.84Z"/>
  <path class="cls-3" d="M301.54,419.24c-2.61-3.48-5.98-6.21-10.08-8.84,.29,6.37,4.77,16.48,8.99,20.05,5.39,4.55,10.11,5.14,10.11,5.14,2.41,1.62,2.56-1.62,1.41-6.48-3.23-3.39-7.01-6.45-10.43-9.87Z"/>
  <path class="cls-4" d="M273.99,405.46s8.34,2.02,6.57,4.04c-1.77,2.02-6.13,1.64-6.13,1.64,0,0,3.6,8.6,1.33,10.37-2.27,1.77-6.53-7.6-6.53-7.6,0,0,3.37,9.12,1.6,10.01-1.77,.88-5.23-8.08-5.23-8.08,0,0,2.58,9.72,.81,10.23-1.77,.51-6.57-8.21-6.57-8.21l-2.13,9.74s.46,4.7,2.39,8.99c0,0-7.71,17.03-14.41,15.64-6.7-1.39-9.98-8.21-3.66-22.5,6.32-14.28,13.17-24.31,31.97-24.26Z"/>
  <g>
    <path class="cls-2" d="M296.86,465.24c-.37,.15,2.15,24.52,2.15,24.52,0,0,14.79,6.07,27.42-.63v-.38l-.13-23.51s-11.63-7.46-29.45,0Z"/>
    <path class="cls-8" d="M323.27,466.12c0,1.33-5.18,2.4-11.56,2.4s-11.56-1.08-11.56-2.4,5.18-2.4,11.56-2.4,11.56,1.07,11.56,2.4Z"/>
  </g>
  <path class="cls-4" d="M330.35,436.76l2.91,15.8s-5.27,14.37-10.15,17.82c0,0-6.83-1.85-8.51,0-1.68,1.85,3.96,2.95,3.96,2.95,0,0-8.26,4.55-7.75,6.74,.5,2.19,7.58-2.44,7.58-2.44,0,0-6.32,4.47-5.39,6.57,.93,2.11,6.91-2.86,6.91-2.86,0,0-5.81,5.56-3.96,6.74,1.85,1.18,6.24-4.89,6.32-4.63s-2.36,4.35-.67,4.79c1.69,.44,7.33-5.46,8.59-10.18,0,0,16.43-14.32,17.69-26.29,1.26-11.96-2.33-18.68-2.33-18.68,0,0-6.6,4.78-15.2,3.68Z"/>
  <g>
    <path class="cls-2" d="M250.61,472.44c-.37,.15,2.15,24.52,2.15,24.52,0,0,14.79,6.07,27.42-.63v-.38l-.13-23.51s-11.63-7.46-29.45,0Z"/>
    <path class="cls-3" d="M277.02,473.33c0,1.33-5.18,2.4-11.56,2.4s-11.56-1.08-11.56-2.4,5.18-2.4,11.56-2.4,11.56,1.08,11.56,2.4Z"/>
  </g>
  <g>
    <path class="cls-2" d="M324.83,476.39c-.37,.15,2.15,24.52,2.15,24.52,0,0,14.79,6.07,27.42-.63v-.38l-.13-23.51s-11.63-7.46-29.45,0Z"/>
    <ellipse class="cls-3" cx="339.68" cy="477.27" rx="11.56" ry="2.4"/>
  </g>
  <path class="cls-10" d="M259.5,418.48c-.64,8.87-5.94,17.91-10.11,25.58-.24,.44,.43,.83,.68,.39,4.14-7.34,10.04-17.3,9.85-25.98,0-.27-.4-.26-.42,0h0Z"/>
  <path class="cls-10" d="M331.97,444.66c-.91-2.03-.49-4.63-.95-6.8-.86-4.06-.88-8.2-1.36-12.31-.05-.39-.66-.41-.63,0,.34,4.18,.54,8.35,1.42,12.46,.45,2.11,.13,4.89,1.23,6.82,.11,.2,.39,.02,.3-.17h0Z"/>
  <path class="cls-10" d="M330.9,437.99c1.01-3.42,2.1-6.93,2.66-10.45,.06-.4-.55-.57-.61-.17-.56,3.57-1.98,6.99-2.4,10.57-.02,.2,.29,.23,.35,.05h0Z"/>
</svg>