<?xml version="1.0" encoding="utf-8"?>
<!-- Generator: Adobe Illustrator 28.1.0, SVG Export Plug-In . SVG Version: 6.00 Build 0)  -->
<svg version="1.1" id="Capa_1" xmlns="http://www.w3.org/2000/svg" xmlns:xlink="http://www.w3.org/1999/xlink" x="0px" y="0px"
	 viewBox="0 0 100 125" style="enable-background:new 0 0 100 125;" xml:space="preserve">
<style type="text/css">
	.st0{fill:#756141;}
</style>
<path class="st0" d="M54.6,85l-0.9,0c-0.4,0-0.7,0.4-0.7,0.8c0,0.4,0.3,0.7,0.7,0.7c0,0,0,0,0,0l0.9,0c0.4,0,0.7-0.4,0.7-0.8
	C55.3,85.4,55,85,54.6,85z"/>
<path class="st0" d="M60.8,84.7c-0.8,0.1-1.5,0.1-2.3,0.2c-0.4,0-0.7,0.4-0.7,0.8c0,0.4,0.4,0.7,0.7,0.7c0,0,0,0,0,0
	c0.8-0.1,1.6-0.1,2.4-0.2c0.4,0,0.7-0.4,0.7-0.8C61.6,84.9,61.2,84.6,60.8,84.7z"/>
<path class="st0" d="M67.9,76c2.5-0.8,4.3-2,4.3-3.6c0-1-0.7-1.9-2-2.6c-0.4-0.2-0.8-0.1-1,0.3c-0.2,0.4-0.1,0.8,0.3,1
	c0.8,0.5,1.3,0.9,1.3,1.3c0,0.7-1.4,1.7-4.8,2.7c1.4-2,2.2-3.9,2.3-5.7l3.8-2.6c5.7-3.5,2.1-12.4-2-19.2c0,0-1.2-2-1.7-3.6
	c0.1,0,0.2-0.1,0.3-0.1c0.1-0.1,1.3-0.6,1.8-1.9c0.4-1.1,0.3-2.3-0.3-3.7c-0.1-0.3-2.3-5.1-7.2-9.1c-0.5-1.7-3.6-12.4-4.3-17.5
	c-0.1-0.4-0.4-0.7-0.8-0.6c-0.4,0.1-0.7,0.4-0.6,0.8c0.6,4.3,2.7,12.2,3.8,15.9c-1.9-1.2-4.1-2.3-6.7-3c-0.3-0.1-1.1-0.4-1.4-0.9
	c-2.8-4.3-5.2-8.4-7.1-11.8c-0.2-0.4-0.6-0.5-1-0.3c-0.4,0.2-0.5,0.7-0.3,1c1.9,3.5,4.3,7.6,7.1,11.9c0.7,1.1,2.1,1.4,2.3,1.5
	c10.5,2.8,14.8,12.5,14.9,12.7c1.2,2.7-0.5,3.6-0.8,3.7c-1.3,0.8-2.1-0.2-2.2-0.4c-3.8-6.3-6-6.1-6.7-5.8c-1,0.3-1.7,0.9-2.2,1.8
	c-1.2,2.3,0,5.9,0.1,6.1l1.8,4.2c-1.7,0.4-3.9,0.6-6.5,0.6c-0.3,0-0.6,0-0.9,0l-1.9-3.7c-0.1-0.3-0.4-0.4-0.7-0.4
	C43.6,45,40.4,42,40.4,42c-2.5-3-0.9-10.3-0.9-10.4c1-3.3,0-4.4-0.3-4.8L24.8,11.7c-0.3-0.3-0.8-0.3-1.1,0c-0.3,0.3-0.3,0.8,0,1.1
	L38.2,28c0,0,0.6,0.7-0.1,3.3c-0.1,0.3-1.8,8.2,1.2,11.8c0.1,0.1,0.6,0.6,1.5,1.1c-0.7,0.6-1.1,1.2-1.1,1.9c0,0.1,0,0.2,0,0.2
	c0,0,0,0,0,0c0,0.1,0,3.4,2.4,5.4c0,0,2.8,2.1,2.9,5.5c0,0,0,0.1,0,0.3c-2.5-0.3-3.9-0.8-4.3-1.1c0.2-0.1,0.6-0.3,1.4-0.6
	c0.4-0.1,0.6-0.5,0.5-0.9c-0.1-0.4-0.5-0.6-0.9-0.5c-1.1,0.3-2.6,0.9-2.6,2c0,1.4,2.5,2.1,5.2,2.5c-0.3,0.3-0.7,0.6-1.3,0.9
	c-0.2,0.1-6.1,2.4-7,7.6c0,0,0,0.1,0,0.1c-1.4-0.6-2-1.2-2-1.7c0-0.4,0.5-0.9,1.3-1.3c0.4-0.2,0.5-0.7,0.3-1c-0.2-0.4-0.7-0.5-1-0.3
	c-1.4,0.8-2,1.6-2,2.6c0,1.4,1.4,2.5,3.4,3.3c0.1,2,1,4.2,2.6,6.4c-4.9,0.7-12,2.1-12,5.2v4.6c0,4.2,16.3,5.4,24.9,5.4
	s24.9-1.1,24.9-5.4v-4.6C76.5,78.3,72.4,76.8,67.9,76z M58.1,38.6c0.3-0.5,0.7-0.9,1.3-1c0,0,0.1,0,0.1,0c0.2,0,1.7,0.1,4.8,5.2
	c0.4,0.6,1.3,1.4,2.4,1.4c0.5,1.8,1.8,4,1.9,4c3,5.1,7.4,14.2,2.5,17.2l-5.5,3.8c-0.1,0.1-1.5,0.7-2.4-0.8l-3.8-7.5
	c-0.2-0.4-0.6-1.5-0.4-2.2c0.1-0.3,0.3-0.4,0.6-0.6c1-0.6,3.5-2,3.9-3.1c0.1-0.4,0-0.8-0.4-0.9c-0.4-0.2-0.8,0-1,0.4
	c-0.2,0.4-1.6,1.4-3.1,2.2c0.1-2.9,2.8-5,2.9-5c2.3-1.9,2.3-5.2,2.3-5.4c0,0,0,0,0,0c0-0.1,0-0.1,0-0.2c0-2.3-4-3.4-6.4-3.8
	c0,0-0.1,0-0.1,0C57.7,41.1,57.6,39.6,58.1,38.6z M58.4,43.8c3.3,0.7,4.5,1.7,4.5,2.2c0,0.5-1,1.2-2.8,1.8L58.4,43.8z M48,46.2
	c0.1,0,0.1,0,0.2,0l1.3,2.6c-5.4-0.4-8.2-1.9-8.2-2.7c0-0.3,0.4-0.7,1.1-1.1C43.8,45.7,45.7,46.2,48,46.2z M46.5,69.7
	c-4.1-0.4-7-1-9-1.7c0-0.1,0-0.3,0-0.4c0.7-4.3,6-6.4,6.1-6.4c1.3-0.6,2-1.3,2.4-2c1,0.1,2,0.2,2.9,0.2c0,0,0,0,0,0
	c0.4,0,0.7-0.3,0.7-0.7c0-0.4-0.3-0.8-0.7-0.8c-0.9,0-1.7-0.1-2.5-0.2c0-0.3,0-0.5,0-0.6c-0.1-4.1-3.4-6.5-3.5-6.6
	c-0.7-0.6-1.1-1.3-1.4-2c2.3,1.2,6.4,1.9,10.4,1.9c4,0,8.1-0.6,10.4-1.9c-0.3,0.7-0.7,1.4-1.3,2c-0.1,0-0.6,0.5-1.3,1.2
	c-4.5,1.4-9.7,0.8-9.7,0.8c-0.4,0-0.8,0.2-0.8,0.7c-0.1,0.4,0.2,0.8,0.7,0.8c0.1,0,1.3,0.2,3.1,0.2c1.5,0,3.5-0.1,5.5-0.5
	c-0.5,1-0.9,2.2-0.8,3.6c0,0,0,0.3,0.1,0.7c0,0.1,0,0.1,0.1,0.2c0,0.1-0.1,0.1-0.1,0.2c-0.5,1.4,0.3,3.1,0.4,3.3l3.8,7.5
	c0.8,1.4,1.9,1.8,2.8,1.8c0.6,0,1.2-0.2,1.6-0.4c-0.4,1.6-1.4,3.3-2.8,5c-1.5,0.3-3.2,0.6-5.3,0.8c-0.4,0-0.7,0.4-0.7,0.8
	c0,0.4,0.4,0.7,0.7,0.7c0,0,0.1,0,0.1,0c0.9-0.1,2.2-0.2,3.5-0.4c-0.8,0.8-1.6,1.6-2.6,2.4c-0.4,0.2-2.9,1.2-7.2,1.2c0,0,0,0,0,0
	c0,0,0,0,0,0c-3.6,0.1-6.7-1-7.2-1.2c-4.4-3.7-6.9-7.1-7.3-10.1c3,0.9,6.6,1.4,8.8,1.6c0,0,0.1,0,0.1,0c0.4,0,0.7-0.3,0.7-0.7
	C47.2,70.1,46.9,69.7,46.5,69.7z M51.6,89.1c-15.2,0-23.4-2.6-23.4-3.9v-2.4c3.9,2.6,14.4,3.6,21.2,3.7c0,0,0,0,0,0
	c0.4,0,0.7-0.3,0.7-0.7c0-0.4-0.3-0.8-0.7-0.8c-13.6-0.3-21.2-2.8-21.2-4.5c0-0.9,3.1-2.8,11.6-3.8c1.2,1.4,2.6,2.7,4.3,4.1
	c0.1,0,0.1,0.1,0.2,0.1c0.1,0.1,3.3,1.4,7.3,1.4c0.2,0,0.5,0,0.7,0c5.1,0,7.9-1.4,8-1.4c0.1,0,0.1-0.1,0.1-0.1c1.6-1.4,3-2.7,4.2-4
	C72.2,78,75,79.7,75,80.6c0,0.9-3,2.7-11.1,3.7c-0.4,0.1-0.7,0.4-0.6,0.8c0,0.4,0.4,0.7,0.7,0.7c0,0,0.1,0,0.1,0
	c4-0.5,8.6-1.4,10.9-3v2.4C75,86.5,66.7,89.1,51.6,89.1z"/>
<path class="st0" d="M40.1,81.1c-2.3-0.3-3.4-0.6-3.8-0.7c0.2-0.2,0.2-0.5,0.1-0.8c-0.2-0.4-0.6-0.5-1-0.4c-0.5,0.2-1,0.7-0.9,1.4
	c0.1,0.9,1.1,1.5,5.4,2c0,0,0.1,0,0.1,0c0.4,0,0.7-0.3,0.7-0.7C40.8,81.5,40.5,81.2,40.1,81.1z"/>
</svg>
